<svg width="400" height="400" viewBox="0 0 400 400" fill="none" xmlns="http://www.w3.org/2000/svg">
<g clip-path="url(#clip0_120_4)">
<g clip-path="url(#clip1_120_4)">
<path d="M247.713 262.299C251.328 262.299 254.796 260.863 257.352 258.307C259.909 255.75 261.345 252.283 261.345 248.667V228.219H271.569C274.281 228.219 276.881 227.142 278.799 225.224C280.716 223.307 281.793 220.706 281.793 217.995C281.793 215.283 280.716 212.682 278.799 210.765C276.881 208.848 274.281 207.77 271.569 207.77H261.345V194.138H271.569C274.281 194.138 276.881 193.061 278.799 191.144C280.716 189.226 281.793 186.626 281.793 183.914C281.793 181.203 280.716 178.602 278.799 176.685C276.881 174.767 274.281 173.69 271.569 173.69H261.345V153.242C261.345 149.626 259.909 146.159 257.352 143.602C254.796 141.046 251.328 139.609 247.713 139.609H227.264V129.385C227.264 126.674 226.187 124.073 224.27 122.156C222.352 120.238 219.752 119.161 217.04 119.161C214.329 119.161 211.728 120.238 209.811 122.156C207.893 124.073 206.816 126.674 206.816 129.385V139.609H193.184V129.385C193.184 126.674 192.107 124.073 190.189 122.156C188.272 120.238 185.671 119.161 182.96 119.161C180.248 119.161 177.648 120.238 175.73 122.156C173.813 124.073 172.736 126.674 172.736 129.385V139.609H152.287C148.672 139.609 145.204 141.046 142.648 143.602C140.091 146.159 138.655 149.626 138.655 153.242V173.69H128.431C125.719 173.69 123.119 174.767 121.201 176.685C119.284 178.602 118.207 181.203 118.207 183.914C118.207 186.626 119.284 189.226 121.201 191.144C123.119 193.061 125.719 194.138 128.431 194.138H138.655V207.77H128.431C125.719 207.77 123.119 208.848 121.201 210.765C119.284 212.682 118.207 215.283 118.207 217.995C118.207 220.706 119.284 223.307 121.201 225.224C123.119 227.142 125.719 228.219 128.431 228.219H138.655V248.667C138.655 252.283 140.091 255.75 142.648 258.307C145.204 260.863 148.672 262.299 152.287 262.299H172.736V272.523C172.736 275.235 173.813 277.836 175.73 279.753C177.648 281.67 180.248 282.748 182.96 282.748C185.671 282.748 188.272 281.67 190.189 279.753C192.107 277.836 193.184 275.235 193.184 272.523V262.299H206.816V272.523C206.816 275.235 207.893 277.836 209.811 279.753C211.728 281.67 214.329 282.748 217.04 282.748C219.752 282.748 222.352 281.67 224.27 279.753C226.187 277.836 227.264 275.235 227.264 272.523V262.299H247.713ZM159.103 160.058H240.897V241.851H159.103V160.058Z" fill="#D9A319"/>
<path d="M220.448 180.506H179.552V221.402H220.448V180.506Z" fill="#D9A319"/>
<path d="M347.228 164.829L315.874 138.928V88.4886C315.852 87.1816 315.455 85.9084 314.73 84.8207C314.005 83.733 312.982 82.8768 311.784 82.3541L244.305 51.6816H241.578L237.489 53.0449L234.081 55.0897V95.9863C234.081 98.6979 235.158 101.298 237.075 103.216C238.993 105.133 241.593 106.21 244.305 106.21C247.016 106.21 249.617 105.133 251.534 103.216C253.452 101.298 254.529 98.6979 254.529 95.9863V86.4438L288.609 102.121V152.56L298.834 160.739L322.69 179.824V222.084L298.834 241.169L288.609 249.349V299.788L254.529 315.465V306.604C254.529 303.892 253.452 301.292 251.534 299.374C249.617 297.457 247.016 296.38 244.305 296.38C241.593 296.38 238.993 297.457 237.075 299.374C235.158 301.292 234.081 303.892 234.081 306.604V347.501L237.489 349.545L241.578 350.909H244.305L311.784 320.236C312.982 319.713 314.005 318.857 314.73 317.77C315.455 316.682 315.852 315.409 315.874 314.102V262.981L347.228 237.08C348.118 236.487 348.838 235.672 349.316 234.716C349.795 233.759 350.015 232.695 349.954 231.627V170.282C350.095 169.205 349.91 168.11 349.424 167.139C348.939 166.167 348.174 165.363 347.228 164.829Z" fill="#D9A319"/>
<path d="M158.422 51H155.695L88.2159 82.3541C87.0177 82.8768 85.9952 83.733 85.27 84.8207C84.5449 85.9083 84.1479 87.1816 84.1262 88.4886V138.928L52.7721 164.829C51.8263 165.363 51.0614 166.167 50.5757 167.139C50.0899 168.11 49.9054 169.205 50.0457 170.282V231.627C49.9854 232.694 50.2053 233.759 50.6836 234.716C51.1618 235.672 51.8818 236.487 52.7721 237.08L84.1262 262.981V313.42C84.1479 314.727 84.5449 316 85.27 317.088C85.9952 318.176 87.0177 319.032 88.2159 319.555L155.695 350.227H158.422L162.511 348.864L165.919 346.819V305.922C165.919 303.211 164.842 300.61 162.925 298.693C161.007 296.775 158.407 295.698 155.695 295.698C152.984 295.698 150.383 296.775 148.466 298.693C146.548 300.61 145.471 303.211 145.471 305.922V314.783L111.391 299.106V249.349L101.166 241.169L77.3101 222.084V179.824L101.166 160.739L111.391 152.56V102.121L145.471 86.4437V95.3047C145.471 98.0163 146.548 100.617 148.466 102.534C150.383 104.452 152.984 105.529 155.695 105.529C158.407 105.529 161.007 104.452 162.925 102.534C164.842 100.617 165.919 98.0163 165.919 95.3047V54.4081L162.511 52.3632L158.422 51Z" fill="#D9A319"/>
</g>
</g>
<defs>
<clipPath id="clip0_120_4">
<rect width="400" height="400" fill="white"/>
</clipPath>
<clipPath id="clip1_120_4">
<rect width="800" height="800" fill="white" transform="translate(-132 -227)"/>
</clipPath>
</defs>
</svg>
