<svg width="264" height="264" viewBox="0 0 264 264" fill="none" xmlns="http://www.w3.org/2000/svg">
<g clip-path="url(#clip0_5_29)">
<rect x="27" y="27" width="210" height="210" fill="url(#paint0_linear_5_29)"/>
<path d="M62.98 55.256H57.296V73.204H54.244V55.256H48.588V52.484H62.98V55.256ZM74.3458 54.892C72.4045 54.892 70.8738 55.7133 69.7538 57.356C68.7271 58.8307 68.2138 60.66 68.2138 62.844C68.2138 65.0467 68.7271 66.8853 69.7538 68.36C70.8738 70.0027 72.4045 70.824 74.3458 70.824C76.2871 70.824 77.8178 70.0027 78.9378 68.36C79.9458 66.8853 80.4498 65.0467 80.4498 62.844C80.4498 60.6787 79.9458 58.8493 78.9378 57.356C77.8178 55.7133 76.2871 54.892 74.3458 54.892ZM74.3458 52.064C77.3325 52.064 79.6565 53.1747 81.3178 55.396C82.7925 57.3747 83.5205 59.8573 83.5018 62.844C83.4645 66.1107 82.6991 68.6867 81.2058 70.572C79.5818 72.6253 77.2951 73.652 74.3458 73.652C71.4151 73.652 69.1191 72.6253 67.4578 70.572C65.9271 68.6493 65.1618 66.0733 65.1618 62.844C65.1618 59.82 65.8898 57.328 67.3458 55.368C68.9885 53.1653 71.3218 52.064 74.3458 52.064ZM91.0089 70.32H92.0169C97.6915 70.32 100.529 67.7813 100.529 62.704C100.529 57.7947 98.1022 55.34 93.2489 55.34H91.0089V70.32ZM87.9569 52.484H93.2489C96.7582 52.484 99.3995 53.4547 101.173 55.396C102.76 57.1507 103.553 59.6147 103.553 62.788C103.553 66.372 102.414 69.0507 100.137 70.824C98.1395 72.4107 95.3675 73.204 91.8209 73.204H87.9569V52.484ZM116.729 54.892C114.787 54.892 113.257 55.7133 112.137 57.356C111.11 58.8307 110.597 60.66 110.597 62.844C110.597 65.0467 111.11 66.8853 112.137 68.36C113.257 70.0027 114.787 70.824 116.729 70.824C118.67 70.824 120.201 70.0027 121.321 68.36C122.329 66.8853 122.833 65.0467 122.833 62.844C122.833 60.6787 122.329 58.8493 121.321 57.356C120.201 55.7133 118.67 54.892 116.729 54.892ZM116.729 52.064C119.715 52.064 122.039 53.1747 123.701 55.396C125.175 57.3747 125.903 59.8573 125.885 62.844C125.847 66.1107 125.082 68.6867 123.589 70.572C121.965 72.6253 119.678 73.652 116.729 73.652C113.798 73.652 111.502 72.6253 109.841 70.572C108.31 68.6493 107.545 66.0733 107.545 62.844C107.545 59.82 108.273 57.328 109.729 55.368C111.371 53.1653 113.705 52.064 116.729 52.064Z" fill="#9EF2CE"/>
<path d="M68.414 83.454L64.49 96.774H62.384L59.396 86.334L56.39 96.774H54.248L50.378 83.454H52.484L55.364 93.93L58.37 83.454H60.494L63.464 93.876L66.398 83.454H68.414ZM72.211 96.846H70.285V86.766H72.211V96.846ZM72.211 85.038H70.285V82.788H72.211V85.038ZM78.8128 88.35C77.9968 88.35 77.3908 88.716 76.9948 89.448C76.6588 90.048 76.4908 90.864 76.4908 91.896C76.4908 94.188 77.2648 95.334 78.8128 95.334C79.5568 95.334 80.1448 94.962 80.5768 94.218C80.9248 93.582 81.0988 92.79 81.0988 91.842C81.0988 90.894 80.9248 90.102 80.5768 89.466C80.1568 88.722 79.5688 88.35 78.8128 88.35ZM82.9168 96.864H81.0988V95.964C80.4988 96.708 79.6768 97.08 78.6328 97.08C77.3248 97.08 76.3108 96.594 75.5908 95.622C74.9188 94.674 74.5828 93.432 74.5828 91.896C74.5828 90.312 74.8948 89.064 75.5188 88.152C76.2028 87.132 77.2408 86.622 78.6328 86.622C79.5928 86.622 80.4148 87.018 81.0988 87.81V82.41H82.9168V96.864ZM89.7108 88.584C88.1868 88.584 87.4248 89.646 87.4248 91.77C87.4248 93.738 88.1628 94.722 89.6388 94.722C90.4308 94.722 91.0308 94.446 91.4388 93.894C91.8108 93.378 91.9968 92.67 91.9968 91.77C91.9968 90.642 91.8108 89.832 91.4388 89.34C91.0788 88.836 90.5028 88.584 89.7108 88.584ZM93.8148 87.054V94.758C93.8148 97.866 92.3028 99.42 89.2788 99.42C88.1628 99.42 87.1488 99.24 86.2368 98.88L86.3988 97.044C87.2868 97.488 88.2528 97.71 89.2968 97.71C91.0128 97.71 91.9008 96.954 91.9608 95.442L91.9788 95.352C91.4508 96.096 90.6708 96.468 89.6388 96.468C88.2348 96.468 87.1608 95.952 86.4168 94.92C85.7928 94.068 85.4808 93 85.4808 91.716C85.4808 90.192 85.8108 89.01 86.4708 88.17C87.1788 87.282 88.1988 86.838 89.5308 86.838C90.6228 86.838 91.4448 87.114 91.9968 87.666V87.054H93.8148ZM104.299 92.616H98.2328C98.2688 93.48 98.5028 94.152 98.9348 94.632C99.3788 95.148 99.9908 95.406 100.771 95.406C101.851 95.406 102.805 95.172 103.633 94.704V96.522C102.673 96.882 101.701 97.062 100.717 97.062C99.1688 97.062 98.0168 96.57 97.2608 95.586C96.6008 94.71 96.2708 93.486 96.2708 91.914C96.2708 90.402 96.6368 89.172 97.3688 88.224C98.1008 87.276 99.0848 86.802 100.321 86.802C101.701 86.802 102.733 87.294 103.417 88.278C104.005 89.118 104.299 90.228 104.299 91.608V92.616ZM102.337 90.906C102.337 90.234 102.163 89.67 101.815 89.214C101.455 88.734 100.981 88.494 100.393 88.494C99.7928 88.494 99.2828 88.74 98.8628 89.232C98.4428 89.724 98.2328 90.282 98.2328 90.906H102.337ZM111.353 96.774C110.897 96.966 110.381 97.062 109.805 97.062C108.665 97.062 107.927 96.756 107.591 96.144C107.339 95.736 107.213 94.95 107.213 93.786V88.692H105.665V86.91H107.213V84.768L109.157 84.138V86.91H111.065V88.692H109.157V94.29C109.157 94.986 109.475 95.334 110.111 95.334C110.531 95.334 110.897 95.256 111.209 95.1L111.353 96.774Z" fill="#9EF2CE"/>
<path d="M123.833 228L76.75 180.917L88.625 169.25L124.042 204.667L135.708 216.333L123.833 228ZM170.917 228L123.833 180.917L135.5 169.042L170.917 204.458L247.583 127.792L259.25 139.667L170.917 228ZM170.917 180.917L159.042 169.25L200.292 128L212.167 139.667L170.917 180.917Z" fill="url(#paint1_linear_5_29)"/>
</g>
<defs>
<linearGradient id="paint0_linear_5_29" x1="246" y1="27" x2="-14.6122" y2="118.571" gradientUnits="userSpaceOnUse">
<stop stop-color="#9EF2CE"/>
<stop offset="1" stop-color="#14AA6A"/>
</linearGradient>
<linearGradient id="paint1_linear_5_29" x1="168" y1="127.792" x2="168" y2="228" gradientUnits="userSpaceOnUse">
<stop stop-color="#00E784"/>
<stop offset="1" stop-color="#A6F3D2"/>
</linearGradient>
<clipPath id="clip0_5_29">
<rect width="264" height="264" fill="white"/>
</clipPath>
</defs>
</svg>
