<svg width="264" height="264" viewBox="0 0 264 264" fill="none" xmlns="http://www.w3.org/2000/svg">
<g clip-path="url(#clip0_201_2)">
<circle cx="130" cy="145" r="85" fill="#FFB948"/>
<circle cx="130" cy="145" r="85" fill="url(#paint0_linear_201_2)"/>
<rect x="103" y="66" width="57" height="2" fill="#FFB948"/>
<rect x="103" y="77" width="19" height="3" fill="#FFB948"/>
<rect x="141" y="77" width="19" height="3" fill="#FFB948"/>
<rect x="104" y="201" width="19" height="3" fill="#FFB948"/>
<rect x="141" y="201" width="19" height="3" fill="#FFB948"/>
<rect x="82" y="89" width="40" height="1" fill="#FFB948"/>
<rect x="141" y="89" width="39" height="1" fill="#FFB948"/>
<rect x="83" y="190" width="40" height="2" fill="#FFB948"/>
<rect x="141" y="190" width="39" height="2" fill="#FFB948"/>
<rect x="104" y="213" width="56" height="2" fill="#FFB948"/>
<rect x="82" y="90" width="2" height="42" fill="#FFB948"/>
<rect x="83" y="149" width="1" height="43" fill="#FFB948"/>
<rect x="104" y="204" width="1" height="9" fill="#FFB948"/>
<rect x="159" y="204" width="1" height="9" fill="#FFB948"/>
<rect x="121" y="192" width="2" height="9" fill="#FFB948"/>
<rect x="141" y="192" width="2" height="9" fill="#FFB948"/>
<rect x="177" y="90" width="3" height="41" fill="#FFB948"/>
<rect x="179" y="149" width="1" height="43" fill="#FFB948"/>
<rect x="180" y="130" width="12" height="1" fill="#FFB948"/>
<rect x="189" y="109" width="12" height="4" fill="#FFB948"/>
<rect x="189" y="171" width="12" height="1" fill="#FFB948"/>
<rect x="62" y="171" width="13" height="1" fill="#FFB948"/>
<rect x="62" y="109" width="13" height="4" fill="#FFB948"/>
<rect x="180" y="149" width="12" height="2" fill="#FFB948"/>
<rect x="72" y="130" width="10" height="2" fill="#FFB948"/>
<rect x="72" y="149" width="11" height="2" fill="#FFB948"/>
<rect x="62" y="113" width="2" height="58" fill="#FFB948"/>
<rect x="72" y="113" width="3" height="17" fill="#FFB948"/>
<rect x="121" y="80" width="1" height="9" fill="#FFB948"/>
<rect x="103" y="68" width="2" height="9" fill="#FFB948"/>
<rect x="141" y="80" width="2" height="9" fill="#FFB948"/>
<rect x="158" y="68" width="2" height="9" fill="#FFB948"/>
<rect x="72" y="151" width="3" height="20" fill="#FFB948"/>
<rect x="199" y="113" width="2" height="55" fill="#FFB948"/>
<rect x="189" y="113" width="3" height="14" fill="#FFB948"/>
<rect x="189" y="151" width="3" height="17" fill="#FFB948"/>
<g filter="url(#filter0_di_201_2)">
<path d="M126 225.944L125.239 229L122.197 227.778V225.944L72 185.611L75.0423 185L126 225.944Z" fill="url(#paint1_linear_201_2)" shape-rendering="crispEdges"/>
<path d="M126 225.944L125.239 229L122.197 227.778V225.944L72 185.611L75.0423 185L126 225.944Z" stroke="#008080" shape-rendering="crispEdges"/>
</g>
<g filter="url(#filter1_di_201_2)">
<path d="M128.208 221.732V228.769L128.906 229H130.302H131V221.127L66.7917 143L64 144.211L128.208 221.732Z" fill="url(#paint2_linear_201_2)" shape-rendering="crispEdges"/>
<path d="M128.208 221.732V228.769L128.906 229H130.302H131V221.127L66.7917 143L64 144.211L128.208 221.732Z" stroke="#008080" shape-rendering="crispEdges"/>
</g>
<g filter="url(#filter2_di_201_2)">
<path d="M144.7 122.204L137 229H139.75L148 121.71L139.2 96L137 97.4833L144.7 122.204Z" fill="url(#paint3_linear_201_2)" shape-rendering="crispEdges"/>
<path d="M144.7 122.204L137 229H139.75L148 121.71L139.2 96L137 97.4833L144.7 122.204Z" stroke="#008080" shape-rendering="crispEdges"/>
</g>
<g filter="url(#filter3_di_201_2)">
<path d="M147.907 195.5L141 229H144.14L151.047 197.148L195 163.648L192.488 162L147.907 195.5Z" fill="url(#paint4_linear_201_2)" shape-rendering="crispEdges"/>
<path d="M147.907 195.5L141 229H144.14L151.047 197.148L195 163.648L192.488 162L147.907 195.5Z" stroke="#008080" shape-rendering="crispEdges"/>
</g>
<g filter="url(#filter4_di_201_2)">
<circle cx="71.25" cy="181.25" r="4.5" stroke="url(#paint5_linear_201_2)" stroke-width="3.5" shape-rendering="crispEdges"/>
</g>
<g filter="url(#filter5_di_201_2)">
<circle cx="62.25" cy="140.25" r="4.5" stroke="url(#paint6_linear_201_2)" stroke-width="3.5" shape-rendering="crispEdges"/>
</g>
<g filter="url(#filter6_di_201_2)">
<circle cx="131.25" cy="143.25" r="4.5" stroke="url(#paint7_linear_201_2)" stroke-width="3.5" shape-rendering="crispEdges"/>
</g>
<g filter="url(#filter7_di_201_2)">
<circle cx="137.25" cy="92.25" r="4.5" stroke="url(#paint8_linear_201_2)" stroke-width="3.5" shape-rendering="crispEdges"/>
</g>
<g filter="url(#filter8_di_201_2)">
<circle cx="197.25" cy="159.25" r="4.5" stroke="url(#paint9_linear_201_2)" stroke-width="3.5" shape-rendering="crispEdges"/>
</g>
<g filter="url(#filter9_di_201_2)">
<path d="M137.3 162.353L131 229H133.25L140 162.045L132.8 146L131 146.926L137.3 162.353Z" fill="url(#paint10_linear_201_2)" shape-rendering="crispEdges"/>
<path d="M137.3 162.353L131 229H133.25L140 162.045L132.8 146L131 146.926L137.3 162.353Z" stroke="#008080" shape-rendering="crispEdges"/>
</g>
<path d="M242.234 38.3306L241.868 60.3032H223.191V95.2764C220.994 99.6709 215.867 108.948 207.81 123.108L142.808 237.366C131.943 237.366 117.722 228.76 100.144 211.548C80.8569 192.75 71.2134 171.875 71.2134 148.926C71.2134 137.208 74.9976 126.282 82.5659 116.15C85.9839 111.512 87.6929 108.033 87.6929 105.713C87.6929 101.441 84.0918 99.3047 76.8896 99.3047C71.5186 99.3047 66.3306 101.502 61.3257 105.896C59.4946 107.483 55.5273 111.817 49.4238 118.897L25.8032 97.4736C33.8599 90.6377 41.7334 86.4263 49.4238 84.8394C53.208 83.9849 58.0908 83.5576 64.0723 83.5576C97.1533 83.1914 113.694 100.831 113.694 136.475C113.694 141.236 113.145 148.377 112.046 157.898C111.069 167.42 110.581 174.561 110.581 179.322C110.581 198.609 113.999 209.107 120.835 210.816C124.619 210.816 129.075 206.177 134.202 196.9L190.049 96.0088V60.3032H12.0703V38.3306H242.234Z" fill="#3B0063"/>
</g>
<defs>
<filter id="filter0_di_201_2" x="66.8536" y="184.464" width="63.7087" height="53.2144" filterUnits="userSpaceOnUse" color-interpolation-filters="sRGB">
<feFlood flood-opacity="0" result="BackgroundImageFix"/>
<feColorMatrix in="SourceAlpha" type="matrix" values="0 0 0 0 0 0 0 0 0 0 0 0 0 0 0 0 0 0 127 0" result="hardAlpha"/>
<feOffset dy="4"/>
<feGaussianBlur stdDeviation="2"/>
<feComposite in2="hardAlpha" operator="out"/>
<feColorMatrix type="matrix" values="0 0 0 0 0 0 0 0 0 0 0 0 0 0 0 0 0 0 0.25 0"/>
<feBlend mode="normal" in2="BackgroundImageFix" result="effect1_dropShadow_201_2"/>
<feBlend mode="normal" in="SourceGraphic" in2="effect1_dropShadow_201_2" result="shape"/>
<feColorMatrix in="SourceAlpha" type="matrix" values="0 0 0 0 0 0 0 0 0 0 0 0 0 0 0 0 0 0 127 0" result="hardAlpha"/>
<feOffset/>
<feGaussianBlur stdDeviation="4"/>
<feComposite in2="hardAlpha" operator="arithmetic" k2="-1" k3="1"/>
<feColorMatrix type="matrix" values="0 0 0 0 0.211765 0 0 0 0 0.788235 0 0 0 0 0.788235 0 0 0 0.25 0"/>
<feBlend mode="normal" in2="shape" result="effect2_innerShadow_201_2"/>
</filter>
<filter id="filter1_di_201_2" x="59.1903" y="142.391" width="76.3097" height="95.1088" filterUnits="userSpaceOnUse" color-interpolation-filters="sRGB">
<feFlood flood-opacity="0" result="BackgroundImageFix"/>
<feColorMatrix in="SourceAlpha" type="matrix" values="0 0 0 0 0 0 0 0 0 0 0 0 0 0 0 0 0 0 127 0" result="hardAlpha"/>
<feOffset dy="4"/>
<feGaussianBlur stdDeviation="2"/>
<feComposite in2="hardAlpha" operator="out"/>
<feColorMatrix type="matrix" values="0 0 0 0 0 0 0 0 0 0 0 0 0 0 0 0 0 0 0.25 0"/>
<feBlend mode="normal" in2="BackgroundImageFix" result="effect1_dropShadow_201_2"/>
<feBlend mode="normal" in="SourceGraphic" in2="effect1_dropShadow_201_2" result="shape"/>
<feColorMatrix in="SourceAlpha" type="matrix" values="0 0 0 0 0 0 0 0 0 0 0 0 0 0 0 0 0 0 127 0" result="hardAlpha"/>
<feOffset/>
<feGaussianBlur stdDeviation="4"/>
<feComposite in2="hardAlpha" operator="arithmetic" k2="-1" k3="1"/>
<feColorMatrix type="matrix" values="0 0 0 0 0.211765 0 0 0 0 0.788235 0 0 0 0 0.788235 0 0 0 0.25 0"/>
<feBlend mode="normal" in2="shape" result="effect2_innerShadow_201_2"/>
</filter>
<filter id="filter2_di_201_2" x="132.412" y="95.2206" width="20.0945" height="142.279" filterUnits="userSpaceOnUse" color-interpolation-filters="sRGB">
<feFlood flood-opacity="0" result="BackgroundImageFix"/>
<feColorMatrix in="SourceAlpha" type="matrix" values="0 0 0 0 0 0 0 0 0 0 0 0 0 0 0 0 0 0 127 0" result="hardAlpha"/>
<feOffset dy="4"/>
<feGaussianBlur stdDeviation="2"/>
<feComposite in2="hardAlpha" operator="out"/>
<feColorMatrix type="matrix" values="0 0 0 0 0 0 0 0 0 0 0 0 0 0 0 0 0 0 0.25 0"/>
<feBlend mode="normal" in2="BackgroundImageFix" result="effect1_dropShadow_201_2"/>
<feBlend mode="normal" in="SourceGraphic" in2="effect1_dropShadow_201_2" result="shape"/>
<feColorMatrix in="SourceAlpha" type="matrix" values="0 0 0 0 0 0 0 0 0 0 0 0 0 0 0 0 0 0 127 0" result="hardAlpha"/>
<feOffset/>
<feGaussianBlur stdDeviation="4"/>
<feComposite in2="hardAlpha" operator="arithmetic" k2="-1" k3="1"/>
<feColorMatrix type="matrix" values="0 0 0 0 0.211765 0 0 0 0 0.788235 0 0 0 0 0.788235 0 0 0 0.32 0"/>
<feBlend mode="normal" in2="shape" result="effect2_innerShadow_201_2"/>
</filter>
<filter id="filter3_di_201_2" x="136.386" y="161.389" width="63.4786" height="76.1107" filterUnits="userSpaceOnUse" color-interpolation-filters="sRGB">
<feFlood flood-opacity="0" result="BackgroundImageFix"/>
<feColorMatrix in="SourceAlpha" type="matrix" values="0 0 0 0 0 0 0 0 0 0 0 0 0 0 0 0 0 0 127 0" result="hardAlpha"/>
<feOffset dy="4"/>
<feGaussianBlur stdDeviation="2"/>
<feComposite in2="hardAlpha" operator="out"/>
<feColorMatrix type="matrix" values="0 0 0 0 0 0 0 0 0 0 0 0 0 0 0 0 0 0 0.25 0"/>
<feBlend mode="normal" in2="BackgroundImageFix" result="effect1_dropShadow_201_2"/>
<feBlend mode="normal" in="SourceGraphic" in2="effect1_dropShadow_201_2" result="shape"/>
<feColorMatrix in="SourceAlpha" type="matrix" values="0 0 0 0 0 0 0 0 0 0 0 0 0 0 0 0 0 0 127 0" result="hardAlpha"/>
<feOffset/>
<feGaussianBlur stdDeviation="4"/>
<feComposite in2="hardAlpha" operator="arithmetic" k2="-1" k3="1"/>
<feColorMatrix type="matrix" values="0 0 0 0 0.211765 0 0 0 0 0.788235 0 0 0 0 0.788235 0 0 0 0.106091 0"/>
<feBlend mode="normal" in2="shape" result="effect2_innerShadow_201_2"/>
</filter>
<filter id="filter4_di_201_2" x="61" y="175" width="20.5" height="20.5" filterUnits="userSpaceOnUse" color-interpolation-filters="sRGB">
<feFlood flood-opacity="0" result="BackgroundImageFix"/>
<feColorMatrix in="SourceAlpha" type="matrix" values="0 0 0 0 0 0 0 0 0 0 0 0 0 0 0 0 0 0 127 0" result="hardAlpha"/>
<feOffset dy="4"/>
<feGaussianBlur stdDeviation="2"/>
<feComposite in2="hardAlpha" operator="out"/>
<feColorMatrix type="matrix" values="0 0 0 0 0 0 0 0 0 0 0 0 0 0 0 0 0 0 0.25 0"/>
<feBlend mode="normal" in2="BackgroundImageFix" result="effect1_dropShadow_201_2"/>
<feBlend mode="normal" in="SourceGraphic" in2="effect1_dropShadow_201_2" result="shape"/>
<feColorMatrix in="SourceAlpha" type="matrix" values="0 0 0 0 0 0 0 0 0 0 0 0 0 0 0 0 0 0 127 0" result="hardAlpha"/>
<feOffset/>
<feGaussianBlur stdDeviation="4"/>
<feComposite in2="hardAlpha" operator="arithmetic" k2="-1" k3="1"/>
<feColorMatrix type="matrix" values="0 0 0 0 0.211765 0 0 0 0 0.788235 0 0 0 0 0.788235 0 0 0 0.25 0"/>
<feBlend mode="normal" in2="shape" result="effect2_innerShadow_201_2"/>
</filter>
<filter id="filter5_di_201_2" x="52" y="134" width="20.5" height="20.5" filterUnits="userSpaceOnUse" color-interpolation-filters="sRGB">
<feFlood flood-opacity="0" result="BackgroundImageFix"/>
<feColorMatrix in="SourceAlpha" type="matrix" values="0 0 0 0 0 0 0 0 0 0 0 0 0 0 0 0 0 0 127 0" result="hardAlpha"/>
<feOffset dy="4"/>
<feGaussianBlur stdDeviation="2"/>
<feComposite in2="hardAlpha" operator="out"/>
<feColorMatrix type="matrix" values="0 0 0 0 0 0 0 0 0 0 0 0 0 0 0 0 0 0 0.25 0"/>
<feBlend mode="normal" in2="BackgroundImageFix" result="effect1_dropShadow_201_2"/>
<feBlend mode="normal" in="SourceGraphic" in2="effect1_dropShadow_201_2" result="shape"/>
<feColorMatrix in="SourceAlpha" type="matrix" values="0 0 0 0 0 0 0 0 0 0 0 0 0 0 0 0 0 0 127 0" result="hardAlpha"/>
<feOffset/>
<feGaussianBlur stdDeviation="4"/>
<feComposite in2="hardAlpha" operator="arithmetic" k2="-1" k3="1"/>
<feColorMatrix type="matrix" values="0 0 0 0 0.211765 0 0 0 0 0.788235 0 0 0 0 0.788235 0 0 0 0.25 0"/>
<feBlend mode="normal" in2="shape" result="effect2_innerShadow_201_2"/>
</filter>
<filter id="filter6_di_201_2" x="121" y="137" width="20.5" height="20.5" filterUnits="userSpaceOnUse" color-interpolation-filters="sRGB">
<feFlood flood-opacity="0" result="BackgroundImageFix"/>
<feColorMatrix in="SourceAlpha" type="matrix" values="0 0 0 0 0 0 0 0 0 0 0 0 0 0 0 0 0 0 127 0" result="hardAlpha"/>
<feOffset dy="4"/>
<feGaussianBlur stdDeviation="2"/>
<feComposite in2="hardAlpha" operator="out"/>
<feColorMatrix type="matrix" values="0 0 0 0 0 0 0 0 0 0 0 0 0 0 0 0 0 0 0.25 0"/>
<feBlend mode="normal" in2="BackgroundImageFix" result="effect1_dropShadow_201_2"/>
<feBlend mode="normal" in="SourceGraphic" in2="effect1_dropShadow_201_2" result="shape"/>
<feColorMatrix in="SourceAlpha" type="matrix" values="0 0 0 0 0 0 0 0 0 0 0 0 0 0 0 0 0 0 127 0" result="hardAlpha"/>
<feOffset/>
<feGaussianBlur stdDeviation="4"/>
<feComposite in2="hardAlpha" operator="arithmetic" k2="-1" k3="1"/>
<feColorMatrix type="matrix" values="0 0 0 0 0.211765 0 0 0 0 0.788235 0 0 0 0 0.788235 0 0 0 0.25 0"/>
<feBlend mode="normal" in2="shape" result="effect2_innerShadow_201_2"/>
</filter>
<filter id="filter7_di_201_2" x="127" y="86" width="20.5" height="20.5" filterUnits="userSpaceOnUse" color-interpolation-filters="sRGB">
<feFlood flood-opacity="0" result="BackgroundImageFix"/>
<feColorMatrix in="SourceAlpha" type="matrix" values="0 0 0 0 0 0 0 0 0 0 0 0 0 0 0 0 0 0 127 0" result="hardAlpha"/>
<feOffset dy="4"/>
<feGaussianBlur stdDeviation="2"/>
<feComposite in2="hardAlpha" operator="out"/>
<feColorMatrix type="matrix" values="0 0 0 0 0 0 0 0 0 0 0 0 0 0 0 0 0 0 0.25 0"/>
<feBlend mode="normal" in2="BackgroundImageFix" result="effect1_dropShadow_201_2"/>
<feBlend mode="normal" in="SourceGraphic" in2="effect1_dropShadow_201_2" result="shape"/>
<feColorMatrix in="SourceAlpha" type="matrix" values="0 0 0 0 0 0 0 0 0 0 0 0 0 0 0 0 0 0 127 0" result="hardAlpha"/>
<feOffset/>
<feGaussianBlur stdDeviation="4"/>
<feComposite in2="hardAlpha" operator="arithmetic" k2="-1" k3="1"/>
<feColorMatrix type="matrix" values="0 0 0 0 0.211765 0 0 0 0 0.788235 0 0 0 0 0.788235 0 0 0 0.25 0"/>
<feBlend mode="normal" in2="shape" result="effect2_innerShadow_201_2"/>
</filter>
<filter id="filter8_di_201_2" x="187" y="153" width="20.5" height="20.5" filterUnits="userSpaceOnUse" color-interpolation-filters="sRGB">
<feFlood flood-opacity="0" result="BackgroundImageFix"/>
<feColorMatrix in="SourceAlpha" type="matrix" values="0 0 0 0 0 0 0 0 0 0 0 0 0 0 0 0 0 0 127 0" result="hardAlpha"/>
<feOffset dy="4"/>
<feGaussianBlur stdDeviation="2"/>
<feComposite in2="hardAlpha" operator="out"/>
<feColorMatrix type="matrix" values="0 0 0 0 0 0 0 0 0 0 0 0 0 0 0 0 0 0 0.25 0"/>
<feBlend mode="normal" in2="BackgroundImageFix" result="effect1_dropShadow_201_2"/>
<feBlend mode="normal" in="SourceGraphic" in2="effect1_dropShadow_201_2" result="shape"/>
<feColorMatrix in="SourceAlpha" type="matrix" values="0 0 0 0 0 0 0 0 0 0 0 0 0 0 0 0 0 0 127 0" result="hardAlpha"/>
<feOffset/>
<feGaussianBlur stdDeviation="4"/>
<feComposite in2="hardAlpha" operator="arithmetic" k2="-1" k3="1"/>
<feColorMatrix type="matrix" values="0 0 0 0 0.211765 0 0 0 0 0.788235 0 0 0 0 0.788235 0 0 0 0.25 0"/>
<feBlend mode="normal" in2="shape" result="effect2_innerShadow_201_2"/>
</filter>
<filter id="filter9_di_201_2" x="126.364" y="145.314" width="18.147" height="92.1858" filterUnits="userSpaceOnUse" color-interpolation-filters="sRGB">
<feFlood flood-opacity="0" result="BackgroundImageFix"/>
<feColorMatrix in="SourceAlpha" type="matrix" values="0 0 0 0 0 0 0 0 0 0 0 0 0 0 0 0 0 0 127 0" result="hardAlpha"/>
<feOffset dy="4"/>
<feGaussianBlur stdDeviation="2"/>
<feComposite in2="hardAlpha" operator="out"/>
<feColorMatrix type="matrix" values="0 0 0 0 0 0 0 0 0 0 0 0 0 0 0 0 0 0 0.25 0"/>
<feBlend mode="normal" in2="BackgroundImageFix" result="effect1_dropShadow_201_2"/>
<feBlend mode="normal" in="SourceGraphic" in2="effect1_dropShadow_201_2" result="shape"/>
<feColorMatrix in="SourceAlpha" type="matrix" values="0 0 0 0 0 0 0 0 0 0 0 0 0 0 0 0 0 0 127 0" result="hardAlpha"/>
<feOffset/>
<feGaussianBlur stdDeviation="4"/>
<feComposite in2="hardAlpha" operator="arithmetic" k2="-1" k3="1"/>
<feColorMatrix type="matrix" values="0 0 0 0 0.211765 0 0 0 0 0.788235 0 0 0 0 0.788235 0 0 0 0.25 0"/>
<feBlend mode="normal" in2="shape" result="effect2_innerShadow_201_2"/>
</filter>
<linearGradient id="paint0_linear_201_2" x1="130" y1="60" x2="130" y2="230" gradientUnits="userSpaceOnUse">
<stop offset="0.109964" stop-color="#FF4848"/>
<stop offset="1" stop-color="#FFB948" stop-opacity="0"/>
</linearGradient>
<linearGradient id="paint1_linear_201_2" x1="99" y1="185" x2="99" y2="229" gradientUnits="userSpaceOnUse">
<stop offset="0.0181365" stop-color="#008080"/>
<stop offset="0.9999" stop-color="#00C8F2" stop-opacity="0.106091"/>
<stop offset="1" stop-color="#00D1FF" stop-opacity="0"/>
</linearGradient>
<linearGradient id="paint2_linear_201_2" x1="97.5" y1="143" x2="97.5" y2="229" gradientUnits="userSpaceOnUse">
<stop offset="0.829649" stop-color="#008080"/>
<stop offset="1" stop-color="#008080" stop-opacity="0"/>
</linearGradient>
<linearGradient id="paint3_linear_201_2" x1="142.5" y1="96" x2="142.5" y2="229" gradientUnits="userSpaceOnUse">
<stop offset="0.941221" stop-color="#008080"/>
<stop offset="1" stop-color="#D9D9D9" stop-opacity="0"/>
</linearGradient>
<linearGradient id="paint4_linear_201_2" x1="168" y1="162" x2="168" y2="229" gradientUnits="userSpaceOnUse">
<stop offset="0.815793" stop-color="#008080"/>
<stop offset="1" stop-color="#008080" stop-opacity="0"/>
</linearGradient>
<linearGradient id="paint5_linear_201_2" x1="71.25" y1="175" x2="71.25" y2="187.5" gradientUnits="userSpaceOnUse">
<stop offset="0.979273" stop-color="#008080"/>
<stop offset="1" stop-color="#C0C2DB" stop-opacity="0"/>
</linearGradient>
<linearGradient id="paint6_linear_201_2" x1="62.25" y1="134" x2="62.25" y2="146.5" gradientUnits="userSpaceOnUse">
<stop offset="0.979273" stop-color="#008080"/>
<stop offset="1" stop-color="#C0C2DB" stop-opacity="0"/>
</linearGradient>
<linearGradient id="paint7_linear_201_2" x1="131.25" y1="137" x2="131.25" y2="149.5" gradientUnits="userSpaceOnUse">
<stop offset="0.979273" stop-color="#008080"/>
<stop offset="1" stop-color="#C0C2DB" stop-opacity="0"/>
</linearGradient>
<linearGradient id="paint8_linear_201_2" x1="137.25" y1="86" x2="137.25" y2="98.5" gradientUnits="userSpaceOnUse">
<stop offset="0.979273" stop-color="#008080"/>
<stop offset="1" stop-color="#C0C2DB" stop-opacity="0"/>
</linearGradient>
<linearGradient id="paint9_linear_201_2" x1="197.25" y1="153" x2="197.25" y2="165.5" gradientUnits="userSpaceOnUse">
<stop offset="0.979273" stop-color="#008080"/>
<stop offset="1" stop-color="#C0C2DB" stop-opacity="0"/>
</linearGradient>
<linearGradient id="paint10_linear_201_2" x1="135.5" y1="146" x2="135.5" y2="229" gradientUnits="userSpaceOnUse">
<stop offset="0.941221" stop-color="#008080"/>
<stop offset="1" stop-color="#D9D9D9" stop-opacity="0"/>
</linearGradient>
<clipPath id="clip0_201_2">
<rect width="264" height="264" fill="white"/>
</clipPath>
</defs>
</svg>
